<?xml version="1.0" encoding="utf-8"?>
<!-- Generator: Adobe Illustrator 25.4.1, SVG Export Plug-In . SVG Version: 6.00 Build 0)  -->
<svg version="1.1"
	 id="svg4110" sodipodi:docname="æ–°è¦ãƒ‰ã‚­ãƒ¥ãƒ¡ãƒ³ãƒˆ 12" xmlns:cc="http://creativecommons.org/ns#" xmlns:dc="http://purl.org/dc/elements/1.1/" xmlns:inkscape="http://www.inkscape.org/namespaces/inkscape" xmlns:rdf="http://www.w3.org/1999/02/22-rdf-syntax-ns#" xmlns:sodipodi="http://sodipodi.sourceforge.net/DTD/sodipodi-0.dtd" xmlns:svg="http://www.w3.org/2000/svg"
	 xmlns="http://www.w3.org/2000/svg" xmlns:xlink="http://www.w3.org/1999/xlink" x="0px" y="0px" viewBox="0 0 600 600"
	 style="enable-background:new 0 0 600 600;" xml:space="preserve">
<style type="text/css">
	.st0{fill:#FFFFFF;}
</style>
<sodipodi:namedview  bordercolor="#666666" borderopacity="1.0" id="base" inkscape:current-layer="layer1" inkscape:cx="-205.04231" inkscape:cy="579.64317" inkscape:document-units="px" inkscape:pageopacity="0.0" inkscape:pageshadow="2" inkscape:window-height="715" inkscape:window-maximized="1" inkscape:window-width="1024" inkscape:window-x="-8" inkscape:window-y="-8" inkscape:zoom="0.24748737" pagecolor="#ffffff" showgrid="false">
	</sodipodi:namedview>
<g id="layer1" transform="translate(0,-452.36218)" inkscape:groupmode="layer" inkscape:label="ãƒ¬ã‚¤ãƒ¤ãƒ¼ 1">
	<g id="g4087" transform="matrix(1.0871732,0,0,1.0871732,-155.7732,195.33037)">
		<path id="rect4002" inkscape:connector-curvature="0" sodipodi:nodetypes="ccccc" class="st0" d="M318.4,412.8l168.5-34.4v47
			l-168.5,34.4L318.4,412.8z"/>
		<rect id="rect3964" x="318.4" y="412.8" class="st0" width="27.1" height="175.6"/>
		
			<path id="path4005" sodipodi:cx="-165" sodipodi:cy="470.36218" sodipodi:rx="125" sodipodi:ry="78" sodipodi:type="arc" class="st0" d="
			M344.7,581.5c4.8,18.1-10.8,38-34.9,44.5c-24.1,6.5-47.6-3-52.4-21.1c-4.8-18.1,10.8-38,34.9-44.5
			C316.3,554,339.8,563.4,344.7,581.5z"/>
		<rect id="rect3964-3" x="459.8" y="384.1" class="st0" width="27.1" height="175.6"/>
		
			<path id="path4005-7" sodipodi:cx="-165" sodipodi:cy="470.36218" sodipodi:rx="125" sodipodi:ry="78" sodipodi:type="arc" class="st0" d="
			M486,552.8c4.8,18.1-10.8,38-34.9,44.5c-24.1,6.5-47.6-3-52.4-21.1c-4.8-18.1,10.8-38,34.9-44.5
			C457.7,525.3,481.2,534.7,486,552.8z"/>
	</g>
</g>
</svg>
